<mxfile host="app.diagrams.net" agent="Mozilla/5.0 (Macintosh; Intel Mac OS X 10_15_7) AppleWebKit/605.1.15 (KHTML, like Gecko) Version/18.1 Safari/605.1.15" version="24.8.3">
  <diagram name="Page-1" id="c4acf3e9-155e-7222-9cf6-157b1a14988f">
    <mxGraphModel dx="1026" dy="604" grid="1" gridSize="10" guides="1" tooltips="1" connect="1" arrows="1" fold="1" page="1" pageScale="1" pageWidth="850" pageHeight="1100" background="none" math="0" shadow="0">
      <root>
        <mxCell id="0" />
        <mxCell id="1" parent="0" />
        <mxCell id="JE1zBtL-nL1WQ-DZyDe0-11" value="Global Admin" style="swimlane;fontStyle=1;align=center;verticalAlign=top;childLayout=stackLayout;horizontal=1;startSize=26;horizontalStack=0;resizeParent=1;resizeParentMax=0;resizeLast=0;collapsible=1;marginBottom=0;whiteSpace=wrap;html=1;" parent="1" vertex="1">
          <mxGeometry x="345" y="210" width="285" height="164" as="geometry" />
        </mxCell>
        <mxCell id="JE1zBtL-nL1WQ-DZyDe0-2" value="- AdminID: int" style="text;strokeColor=none;fillColor=none;align=left;verticalAlign=top;spacingLeft=4;spacingRight=4;overflow=hidden;rotatable=0;points=[[0,0.5],[1,0.5]];portConstraint=eastwest;whiteSpace=wrap;html=1;" parent="JE1zBtL-nL1WQ-DZyDe0-11" vertex="1">
          <mxGeometry y="26" width="285" height="26" as="geometry" />
        </mxCell>
        <mxCell id="2" value="- Name: String" style="text;strokeColor=none;fillColor=none;align=left;verticalAlign=top;spacingLeft=4;spacingRight=4;overflow=hidden;rotatable=0;points=[[0,0.5],[1,0.5]];portConstraint=eastwest;whiteSpace=wrap;html=1;" parent="JE1zBtL-nL1WQ-DZyDe0-11" vertex="1">
          <mxGeometry y="52" width="285" height="26" as="geometry" />
        </mxCell>
        <mxCell id="JE1zBtL-nL1WQ-DZyDe0-3" value="Password" style="text;strokeColor=none;fillColor=none;align=left;verticalAlign=top;spacingLeft=4;spacingRight=4;overflow=hidden;rotatable=0;points=[[0,0.5],[1,0.5]];portConstraint=eastwest;whiteSpace=wrap;html=1;" parent="JE1zBtL-nL1WQ-DZyDe0-11" vertex="1">
          <mxGeometry y="78" width="285" height="26" as="geometry" />
        </mxCell>
        <mxCell id="JE1zBtL-nL1WQ-DZyDe0-15" value="- isLoggedIn: Boolean" style="text;strokeColor=none;fillColor=none;align=left;verticalAlign=top;spacingLeft=4;spacingRight=4;overflow=hidden;rotatable=0;points=[[0,0.5],[1,0.5]];portConstraint=eastwest;whiteSpace=wrap;html=1;" parent="JE1zBtL-nL1WQ-DZyDe0-11" vertex="1">
          <mxGeometry y="104" width="285" height="26" as="geometry" />
        </mxCell>
        <mxCell id="JE1zBtL-nL1WQ-DZyDe0-13" value="" style="line;strokeWidth=1;fillColor=none;align=left;verticalAlign=middle;spacingTop=-1;spacingLeft=3;spacingRight=3;rotatable=0;labelPosition=right;points=[];portConstraint=eastwest;strokeColor=inherit;" parent="JE1zBtL-nL1WQ-DZyDe0-11" vertex="1">
          <mxGeometry y="130" width="285" height="8" as="geometry" />
        </mxCell>
        <mxCell id="JE1zBtL-nL1WQ-DZyDe0-14" value="+ CreateFloor(): void" style="text;strokeColor=none;fillColor=none;align=left;verticalAlign=top;spacingLeft=4;spacingRight=4;overflow=hidden;rotatable=0;points=[[0,0.5],[1,0.5]];portConstraint=eastwest;whiteSpace=wrap;html=1;" parent="JE1zBtL-nL1WQ-DZyDe0-11" vertex="1">
          <mxGeometry y="138" width="285" height="26" as="geometry" />
        </mxCell>
        <mxCell id="JE1zBtL-nL1WQ-DZyDe0-18" value="GlobalAdmin Service" style="swimlane;fontStyle=1;align=center;verticalAlign=top;childLayout=stackLayout;horizontal=1;startSize=26;horizontalStack=0;resizeParent=1;resizeParentMax=0;resizeLast=0;collapsible=1;marginBottom=0;whiteSpace=wrap;html=1;" parent="1" vertex="1">
          <mxGeometry x="120" y="210" width="210" height="112" as="geometry" />
        </mxCell>
        <mxCell id="JE1zBtL-nL1WQ-DZyDe0-19" value="-GlobalAdmin: GlobalAdmin" style="text;strokeColor=none;fillColor=none;align=left;verticalAlign=top;spacingLeft=4;spacingRight=4;overflow=hidden;rotatable=0;points=[[0,0.5],[1,0.5]];portConstraint=eastwest;whiteSpace=wrap;html=1;" parent="JE1zBtL-nL1WQ-DZyDe0-18" vertex="1">
          <mxGeometry y="26" width="210" height="26" as="geometry" />
        </mxCell>
        <mxCell id="JE1zBtL-nL1WQ-DZyDe0-20" value="" style="line;strokeWidth=1;fillColor=none;align=left;verticalAlign=middle;spacingTop=-1;spacingLeft=3;spacingRight=3;rotatable=0;labelPosition=right;points=[];portConstraint=eastwest;strokeColor=inherit;" parent="JE1zBtL-nL1WQ-DZyDe0-18" vertex="1">
          <mxGeometry y="52" width="210" height="8" as="geometry" />
        </mxCell>
        <mxCell id="JE1zBtL-nL1WQ-DZyDe0-21" value="&lt;span style=&quot;white-space: nowrap;&quot;&gt;+ Login(GlobalAdmin): GlobalAdmin&lt;/span&gt;" style="text;strokeColor=none;fillColor=none;align=left;verticalAlign=top;spacingLeft=4;spacingRight=4;overflow=hidden;rotatable=0;points=[[0,0.5],[1,0.5]];portConstraint=eastwest;whiteSpace=wrap;html=1;" parent="JE1zBtL-nL1WQ-DZyDe0-18" vertex="1">
          <mxGeometry y="60" width="210" height="26" as="geometry" />
        </mxCell>
        <mxCell id="JE1zBtL-nL1WQ-DZyDe0-22" value="&lt;span style=&quot;white-space: nowrap;&quot;&gt;+ Logout(GlobalAdmin): void&lt;/span&gt;" style="text;strokeColor=none;fillColor=none;align=left;verticalAlign=top;spacingLeft=4;spacingRight=4;overflow=hidden;rotatable=0;points=[[0,0.5],[1,0.5]];portConstraint=eastwest;whiteSpace=wrap;html=1;" parent="JE1zBtL-nL1WQ-DZyDe0-18" vertex="1">
          <mxGeometry y="86" width="210" height="26" as="geometry" />
        </mxCell>
      </root>
    </mxGraphModel>
  </diagram>
</mxfile>
